Coordinates																	
version=1																	
nRows=35																	
nColumns=18																	
inDegrees=yes																	
																	
"Units are S.I. units (second, meters, Newtons, ...)"																	
Angles are in degrees.																	
																	
endheader																	
time	ground_thorax_rot_x	ground_thorax_rot_y	ground_thorax_rot_z	ground_thorax_tx	ground_thorax_ty	ground_thorax_tz	clav_prot	clav_elev	scapula_abduction	scapula_elevation	scapula_upward_rot	scapula_winging	plane_elv	shoulder_elv	axial_rot	elbow_flexion	pro_sup
0	1.913183799	-4.815756796	-9.437190396	-0.00423131	0.00403036	-0.00078352	-22.07453428	-4.69646931	-11.32010966	-4.399397982	13.3616196	5.409571008	-20.00337256	32.40689919	16.71195641	0	34.32
0.01	1.899339703	-4.859351412	-9.443579774	-0.00423131	0.00403036	-0.00078352	-22.17293906	-4.574715934	-11.35153677	-4.386671815	13.64970006	5.302623581	-19.87041227	32.71386266	16.17325289	0	34.32
0.02	1.882619218	-4.899278574	-9.451361797	-0.00423131	0.00403036	-0.00078352	-22.27544832	-4.457632967	-11.39088919	-4.376766149	13.93406437	5.197955089	-19.73193596	33.02572127	15.6504381	0	34.32
0.03	1.861236293	-4.933913083	-9.461202111	-0.00423131	0.00403036	-0.00078352	-22.38325627	-4.348696012	-11.44164976	-4.371335972	14.21065084	5.097636862	-19.58565986	33.34535338	15.1600338	0	34.32
0.04	1.833928139	-4.962216376	-9.473457172	-0.00423131	0.00403036	-0.00078352	-22.49670704	-4.250695039	-11.50564492	-4.371629406	14.47604257	5.003378105	-19.43060354	33.67491773	14.71628738	0	34.32
0.05	1.800128821	-4.983882261	-9.488085516	-0.00423131	0.00403036	-0.00078352	-22.61517596	-4.165422172	-11.58269334	-4.378340612	14.72785123	4.916331871	-19.26724053	34.01578583	14.32979488	0	34.32
0.06	1.760071348	-4.999404262	-9.504607604	-0.00423131	0.00403036	-0.00078352	-22.73706987	-4.093450742	-11.67050043	-4.391511066	14.96498971	4.836955094	-19.09746243	34.36852848	14.00639901	0	34.32
0.07	1.71480196	-5.010046582	-9.522123954	-0.00423131	0.00403036	-0.00078352	-22.85995789	-4.034037558	-11.76483307	-4.410494999	15.18779706	4.764942039	-18.92435125	34.73294387	13.74649593	0	34.32
0.08	1.666098967	-5.01770972	-9.539394821	-0.00423131	0.00403036	-0.00078352	-22.98083153	-3.985168487	-11.85997881	-4.433999372	15.39799603	4.699242931	-18.75177327	35.10811454	13.54485657	0	34.32
0.09	1.616299115	-5.024694474	-9.554976714	-0.00423131	0.00403036	-0.00078352	-23.09647624	-3.943751938	-11.94945774	-4.460201007	15.59848428	4.638169871	-18.58383038	35.49248266	13.3910229	0	34.32
0.1	1.56804619	-5.033383244	-9.567402352	-0.00423131	0.00403036	-0.00078352	-23.20391823	-3.905946935	-12.02691565	-4.486934192	15.79298131	4.579581383	-18.42422925	35.8839376	13.27028065	0	34.32
0.11	1.523987966	-5.045873157	-9.575382683	-0.00423131	0.00403036	-0.00078352	-23.30089373	-3.867594151	-12.0870902	-4.511932117	15.98557338	4.521126113	-18.27564952	36.27991456	13.16514149	0	34.32
0.12	1.486456797	-5.063608744	-9.578003808	-0.00423131	0.00403036	-0.00078352	-23.38627531	-3.824701985	-12.12671586	-4.5330963	16.18021451	4.460516997	-18.13920569	36.67750709	13.05719869	0	34.32
0.13	1.457174416	-5.087069415	-9.574889596	-0.00423131	0.00403036	-0.00078352	-23.46038693	-3.773928271	-12.14522532	-4.548761347	16.38025013	4.395801189	-18.01409553	37.07359781	12.92916146	0	34.32
0.14	1.43702128	-5.115566011	-9.56630336	-0.00423131	0.00403036	-0.00078352	-23.52514736	-3.712994319	-12.14512053	-4.557919676	16.58802852	4.325589787	-17.89750886	37.46501062	12.76683502	0	34.32
0.15	1.425904322	-5.147189826	-9.553169254	-0.00423131	0.00403036	-0.00078352	-23.58400173	-3.640973458	-12.1319267	-4.560373227	16.80465404	4.2492157	-17.78483468	37.84868349	12.56080472	0	34.32
0.16	1.422744764	-5.178937281	-9.537005141	-0.00423131	0.00403036	-0.00078352	-23.64163071	-3.558411197	-12.11370286	-4.55678723	17.02991456	4.166797636	-17.67015781	38.22185594	12.30760716	0	34.32
0.17	1.425591255	-5.207007018	-9.519771736	-0.00423131	0.00403036	-0.00078352	-23.70346162	-3.46725665	-12.1001518	-4.54863366	17.26238967	4.079201592	-17.54698644	38.58225949	12.01022632	0	34.32
0.18	1.431845727	-5.227238091	-9.503655596	-0.00423131	0.00403036	-0.00078352	-23.77503886	-3.370611349	-12.10143975	-4.538027458	17.49971838	3.987906094	-17.40910994	38.92829454	11.67783185	0	34.32
0.19	1.43857283	-5.235633312	-9.490813942	-0.00423131	0.00403036	-0.00078352	-23.86133698	-3.272327864	-12.12688704	-4.527474365	17.73898269	3.894791147	-17.25145985	39.25917489	11.3247681	0	34.32
0.2	1.442851388	-5.228895073	-9.483115561	-0.00423131	0.00403036	-0.00078352	-23.96611293	-3.176512362	-12.18371727	-4.519562833	17.97714795	3.801881227	-17.07084241	39.57502111	10.96889498	0	34.32
0.21	1.442119986	-5.204895182	-9.481913296	-0.00423131	0.00403036	-0.00078352	-24.09139231	-3.086999075	-12.27604915	-4.516641629	18.21149652	3.711078084	-16.86642856	39.87688701	10.62946388	0	34.32
0.22	1.434469648	-5.1630066	-9.487879638	-0.00423131	0.00403036	-0.00078352	-24.23716795	-3.006868168	-12.40428192	-4.520527702	18.43999622	3.623919003	-16.63992482	40.1667091	10.32477431	0	34.32
0.23	1.418844606	-5.104242932	-9.50092833	-0.00423131	0.00403036	-0.00078352	-24.40135983	-2.938071085	-12.56496879	-4.532284808	18.66155906	3.541390739	-16.3953984	40.44717573	10.06989116	0	34.32
0.24	1.395126052	-5.031178564	-9.52023282	-0.00423131	0.00403036	-0.00078352	-24.58004814	-2.881210255	-12.75120134	-4.552102825	18.87616487	3.463819692	-16.13878282	40.72152115	9.874704771	0	34.32
0.25	1.364091465	-4.947654592	-9.54433875	-0.00423131	0.00403036	-0.00078352	-24.76795167	-2.835496123	-12.95345312	-4.579292283	19.08484597	3.390846928	-15.87713894	40.99325764	9.742582842	0	34.32
0.26	1.327260494	-4.858308104	-9.571354303	-0.00423131	0.00403036	-0.00078352	-24.95908747	-2.798878182	-13.16076337	-4.612391331	19.28954816	3.321484416	-15.61778108	41.26586736	9.669796846	0	34.32
0.27	1.286654591	-4.767989976	-9.599191289	-0.00423131	0.00403036	-0.00078352	-25.14752088	-2.768322657	-13.36209311	-4.649366186	19.49289909	3.254238511	-15.36739568	41.54248295	9.645811749	0	34.32
0.28	1.244508927	-4.681154578	-9.625823017	-0.00423131	0.00403036	-0.00078352	-25.32810128	-2.740191538	-13.54766134	-4.68787378	19.69792306	3.18727962	-15.13127711	41.82559081	9.654416626	0	34.32
0.29	1.202979962	-4.601310611	-9.649523204	-0.00423131	0.00403036	-0.00078352	-25.49708046	-2.710667927	-13.71007428	-4.725548638	19.90774382	3.118633757	-14.91278347	42.11679329	9.6755604	0	34.32
0.3	1.163889839	-4.530614311	-9.669053846	-0.00423131	0.00403036	-0.00078352	-25.65252807	-2.676171597	-13.84509276	-4.760275244	20.12531254	3.046372197	-14.71307722	42.4166624	9.687658827	0	34.32
0.31	1.128540248	-4.46966496	-9.683778389	-0.00423131	0.00403036	-0.00078352	-25.79448915	-2.63371523	-13.95193983	-4.790412048	20.35318923	2.96877878	-14.53116889	42.72470867	9.670073137	0	34.32
0.32	1.097615274	-4.41753081	-9.693688378	-0.00423131	0.00403036	-0.00078352	-25.9248683	-2.581164196	-14.03312198	-4.814942352	20.59339478	2.88447973	-14.36423393	43.03947345	9.605439695	0	34.32
0.33	1.071177552	-4.37199606	-9.699345065	-0.00423131	0.00403036	-0.00078352	-26.04706741	-2.517378666	-14.09381309	-4.833539286	20.84733891	2.792527099	-14.20813303	43.35873528	9.481557958	0	34.32
0.34	1.048747483	-4.329983174	-9.70174981	-0.00423131	0.00403036	-0.00078352	-26.16544079	-2.442233944	-14.14091583	-4.846544679	21.1158183	2.692433287	-14.05804136	43.6798026	9.292615119	0	34.32
